<svg width="23" height="23" viewBox="0 0 23 23" fill="none" xmlns="http://www.w3.org/2000/svg">
<path d="M6.37788 0.131836H0.757973C0.339876 0.131836 0 0.470424 0 0.889039V6.51593C0 6.9348 0.339876 7.2739 0.757973 7.2739H6.37788C6.79829 7.2739 7.13688 6.9348 7.13688 6.51593V0.889039C7.13637 0.469908 6.79829 0.131836 6.37788 0.131836Z" fill="#546785"/>
<path d="M6.37788 7.86288H0.757973C0.339876 7.86288 0 8.20147 0 8.62017V14.2484C0 14.667 0.339876 15.0061 0.757973 15.0061H6.37788C6.79829 15.0061 7.13688 14.667 7.13688 14.2484V8.62017C7.13637 8.20147 6.79829 7.86288 6.37788 7.86288Z" fill="#546785"/>
<path d="M6.37788 15.8556H0.757973C0.339876 15.8556 0 16.1942 0 16.6129V22.2416C0 22.6601 0.339876 22.9992 0.757973 22.9992H6.37788C6.79829 22.9992 7.13688 22.6601 7.13688 22.2416V16.6129C7.13637 16.1942 6.79829 15.8556 6.37788 15.8556Z" fill="#546785"/>
<path d="M14.3108 0.000762939H8.68961C8.27152 0.000762939 7.93164 0.339867 7.93164 0.758481V6.38614C7.93164 6.80476 8.27152 7.14386 8.68961 7.14386H14.3108C14.7289 7.14386 15.069 6.80476 15.069 6.38614V0.757966C15.068 0.339351 14.7289 0.000762939 14.3108 0.000762939Z" fill="#546785"/>
<path d="M14.3108 7.73181H8.68961C8.27152 7.73181 7.93164 8.07117 7.93164 8.48979V14.1168C7.93164 14.5353 8.27152 14.8744 8.68961 14.8744H14.3108C14.7289 14.8744 15.069 14.5353 15.069 14.1168V8.48979C15.068 8.07117 14.7289 7.73181 14.3108 7.73181Z" fill="#546785"/>
<path d="M14.3108 15.725H8.68961C8.27152 15.725 7.93164 16.0641 7.93164 16.4827V22.1099C7.93164 22.5289 8.27152 22.8675 8.68961 22.8675H14.3108C14.7289 22.8675 15.069 22.5289 15.069 22.1099V16.4827C15.068 16.0641 14.7289 15.725 14.3108 15.725Z" fill="#546785"/>
<path d="M22.2409 0.00128174H16.6215C16.2034 0.00128174 15.8633 0.340643 15.8633 0.759258V6.38615C15.8633 6.80528 16.2034 7.14386 16.6215 7.14386H22.2414C22.6595 7.14386 22.9996 6.80528 22.9996 6.38615V0.759258C22.9986 0.33987 22.659 0.00128174 22.2409 0.00128174Z" fill="#546785"/>
<path d="M22.2409 7.73334H16.6215C16.2034 7.73334 15.8633 8.07218 15.8633 8.49131V14.1182C15.8633 14.5368 16.2034 14.8754 16.6215 14.8754H22.2414C22.6595 14.8754 22.9996 14.5369 22.9996 14.1182V8.49131C22.9986 8.07218 22.659 7.73334 22.2409 7.73334Z" fill="#546785"/>
<path d="M22.2409 15.7256H16.6215C16.2034 15.7256 15.8633 16.0647 15.8633 16.4837V22.1109C15.8633 22.5295 16.2034 22.8681 16.6215 22.8681H22.2414C22.6595 22.8681 22.9996 22.5295 22.9996 22.1109V16.4837C22.9986 16.0647 22.659 15.7256 22.2409 15.7256Z" fill="#546785"/>
</svg>
