<svg width="267" height="58" viewBox="0 0 267 58" fill="none" xmlns="http://www.w3.org/2000/svg">
<path d="M29.1385 57.4455C45.0106 57.4455 57.8775 44.6338 57.8775 28.8297C57.8775 13.0257 45.0106 0.213928 29.1385 0.213928C13.2663 0.213928 0.399414 13.0257 0.399414 28.8297C0.399414 44.6338 13.2663 57.4455 29.1385 57.4455Z" fill="#4F5766"/>
<path d="M38.8124 19.6107L35.581 43.4073L25.7123 44.8089C25.7123 44.8089 17.805 39.9516 17.805 39.5015C17.805 39.0502 23.1483 30.7385 23.1483 30.7385L22.9976 20.9741L21.187 19.6345L3.03302 37.8106L2.12891 38.7275C6.15196 49.6958 16.7227 57.5264 29.1315 57.5264C42.5759 57.5264 53.8618 48.3324 56.9999 35.9149L38.8124 19.6107Z" fill="url(#paint0_linear_1348:2)"/>
<path d="M44.339 34.193C44.339 33.3118 44.2553 32.4521 44.1046 31.6138H38.8832V19.6107H35.1866V31.615H24.9532V19.6357H21.2578V31.615H15.5078C15.3572 32.4521 15.2734 33.313 15.2734 34.1942C15.2734 41.5628 20.8046 47.6394 27.9585 48.5444V56.9263H31.6551V48.5432C38.8079 47.6394 44.339 41.5616 44.339 34.193Z" fill="white"/>
<path d="M62.5724 48.4074H69.0279C68.7265 49.7863 68.8892 50.8378 69.5182 51.5654C70.2226 52.443 71.5058 52.8812 73.3691 52.8812C75.1809 52.8812 76.4892 52.5561 77.2953 51.9036C78.2257 51.2272 78.667 50.3246 78.6167 49.1969C78.5916 48.0942 78.1324 47.3488 77.2391 46.9606C76.3457 46.5724 74.7791 46.0771 72.5391 45.4757C70.1987 44.9744 68.3618 44.2421 67.0271 43.2763C65.6925 42.3118 65.0383 40.6887 65.0646 38.4084C65.2153 35.7017 66.2845 33.5476 68.2733 31.9436C69.3305 31.0422 70.5886 30.4218 72.0488 30.0836C73.5078 29.7454 75.2323 29.5513 77.2211 29.5013C79.1585 29.5013 80.8316 29.6704 82.2416 30.0086C83.6504 30.3468 84.796 31.0922 85.6774 32.2449C86.3065 33.0475 86.6832 33.962 86.81 34.9885C86.9355 36.0161 86.9104 36.8675 86.7346 37.5451H80.7694C80.8699 36.7687 80.6941 36.0542 80.2408 35.4029C79.6369 34.7515 78.5294 34.4252 76.9185 34.4252C75.3328 34.4252 74.0998 34.7015 73.2196 35.2516C72.3382 35.803 71.8981 36.5543 71.8981 37.507C71.8981 38.4846 72.2951 39.155 73.0868 39.5182C73.8797 39.8814 75.0314 40.2136 76.5406 40.5137C79.888 41.2151 82.2153 42.0986 83.5248 43.1632C84.8331 44.229 85.5124 45.7508 85.5638 47.7299C85.6392 49.0076 85.4251 50.2924 84.9216 51.5832C84.4181 52.8741 83.6133 53.9696 82.5059 54.8722C80.291 56.7775 77.2211 57.7289 73.2949 57.7289C68.7146 57.8289 65.5311 56.8025 63.7444 54.6471C62.9897 53.7207 62.5556 52.655 62.442 51.4523C62.326 50.2496 62.3702 49.235 62.5724 48.4074Z" fill="#505968"/>
<path d="M88.2051 41.4914L89.1486 37.5451H92.5462L93.7924 31.6816H99.7193L98.5115 37.5451H102.588L101.758 41.4914H97.6432L95.6425 50.7759C95.4164 51.9786 95.4535 52.7181 95.7561 52.9944C96.1077 53.3456 96.6865 53.5207 97.4925 53.5207C97.996 53.4207 98.6 53.2825 99.3044 53.1075L98.5115 57.0168C96.8755 57.3669 95.4284 57.5432 94.1703 57.5432C92.0559 57.5432 90.7225 57.13 90.1688 56.3024C89.3125 55.4259 89.1116 53.9601 89.5648 51.9048L91.7545 41.4925H88.2051V41.4914Z" fill="#505968"/>
<path d="M118.971 37.2819L117.839 41.8676C115.875 41.4675 114.088 41.7807 112.479 42.8071C111.296 43.5085 110.472 44.3421 110.005 45.3066C109.539 46.2711 109.156 47.531 108.854 49.0838L107.117 57.0145H101.266L105.342 37.5438H111.005L110.363 40.3624C111.445 39.0597 112.754 38.1202 114.289 37.5438C115.599 37.2188 117.159 37.1318 118.971 37.2819Z" fill="#505968"/>
<path d="M130.823 57.0156L131.238 54.8734H131.087C130.257 55.726 129.25 56.4024 128.068 56.9037C126.885 57.405 125.525 57.6181 123.991 57.5419C121.65 57.4669 120.103 56.7906 119.347 55.5116C118.541 54.1589 118.352 52.2417 118.781 49.7601L121.424 37.5438H127.238L124.897 48.8956C124.519 50.3496 124.544 51.4022 124.973 52.0524C125.35 52.8038 126.167 53.1801 127.427 53.1801C128.886 53.03 130.018 52.4906 130.824 51.5642C131.428 50.8628 131.856 49.8482 132.107 48.5193L134.448 37.5438H140.299L136.109 57.0144H130.823V57.0156Z" fill="#505968"/>
<path d="M143.81 37.545H149.02L148.416 40.4768C150.53 38.2214 152.845 37.0437 155.362 36.9437C158.18 36.9187 159.842 38.0595 160.345 40.3636C162.61 38.0333 165.088 36.8937 167.782 36.9437C169.897 37.0937 171.419 37.8213 172.351 39.124C172.879 39.9016 173.144 40.7161 173.144 41.5675C173.144 42.4201 173.017 43.6347 172.766 45.2137L170.198 57.0168H164.347L166.838 45.59C167.114 44.1623 167.114 43.1596 166.838 42.5833C166.535 41.7569 165.869 41.3425 164.837 41.3425C163.88 41.3425 162.962 41.6878 162.081 42.3761C161.2 43.0655 160.596 44.2623 160.27 45.9663L157.891 57.0168H152.002L154.456 45.59C154.783 44.3123 154.796 43.3096 154.495 42.5833C154.269 41.7569 153.613 41.3425 152.531 41.3425C151.499 41.3925 150.542 41.7938 149.662 42.5452C148.78 43.2965 148.202 44.3873 147.925 45.8151L145.547 57.0168H139.733L143.81 37.545Z" fill="#505968"/>
<path d="M182.324 23.3926H199.28C201.711 23.3926 203.7 23.8332 205.247 24.7132C207.236 26.0028 208.231 27.9509 208.231 30.5611C208.231 33.1391 207.315 35.2302 205.484 36.833C204.252 37.9964 202.705 38.7978 200.843 39.2383V39.38C201.695 39.5372 202.54 39.8683 203.377 40.3708C204.213 40.8745 204.923 41.6199 205.508 42.6106C206.092 43.6014 206.385 44.8505 206.385 46.3592C206.385 48.8432 205.705 50.839 204.348 52.3477C202.991 53.8564 201.711 54.8793 200.511 55.4128C198.396 56.4821 195.302 57.0156 191.229 57.0156H175.031L182.324 23.3926ZM186.018 42.8214L184.455 50.8854H191.701C193.311 50.8854 194.59 50.6496 195.538 50.1781C197.022 49.3922 197.859 48.1978 198.048 46.5938C198.048 45.022 197.495 43.9693 196.39 43.4347C195.917 43.0262 194.906 42.8214 193.359 42.8214H186.018ZM189.002 29.5704L187.439 36.7853H194.022C195.095 36.7853 196.169 36.6127 197.243 36.2662C198.789 35.5433 199.563 34.3966 199.563 32.8236C199.563 32.0686 199.381 31.4411 199.019 30.9374C198.655 30.4349 198.333 30.1515 198.048 30.0884C197.48 29.743 196.485 29.5692 195.064 29.5692H189.002V29.5704ZM222.202 57.911C217.78 57.911 214.663 56.8655 212.849 54.7745C211.033 52.6847 210.157 50.1138 210.22 47.0642C210.44 42.8833 211.751 39.4086 214.151 36.6424C216.739 33.4047 220.608 31.7852 225.754 31.7852C230.395 31.7852 233.576 32.8938 235.297 35.1099C237.018 37.3259 237.814 39.8492 237.689 42.6785C237.689 44.1872 237.42 45.8615 236.884 47.7013C236.347 49.5398 235.321 51.3248 233.806 53.0538C231.279 56.1665 227.411 57.786 222.202 57.911ZM222.866 53.0538C225.265 53.0538 227.081 51.875 228.312 49.5172C229.353 47.6 229.985 45.1637 230.206 42.2082C230.206 40.3851 229.78 38.9942 228.928 38.0345C228.075 37.0759 226.78 36.6127 225.045 36.6436C222.708 36.6436 220.877 37.807 219.55 40.1338C218.414 42.3975 217.845 44.8815 217.845 47.5846C217.751 49.8173 218.255 51.3022 219.36 52.0405C220.465 52.7799 221.634 53.1181 222.866 53.0538ZM252.323 39.567L257.817 32.5878H266.674L255.403 44.66L261.559 57.0156H253.697L250.382 49.6589L244.367 57.0156H235.7L247.493 44.0944L241.431 32.5878H249.482L252.323 39.567Z" fill="url(#paint1_linear_1348:2)"/>
<defs>
<linearGradient id="paint0_linear_1348:2" x1="2.12919" y1="38.5684" x2="57.0001" y2="38.5684" gradientUnits="userSpaceOnUse">
<stop offset="0.1419" stop-color="#C48857"/>
<stop offset="0.4964" stop-color="#FFDA8F"/>
<stop offset="0.8044" stop-color="#EA9957"/>
</linearGradient>
<linearGradient id="paint1_linear_1348:2" x1="175.031" y1="40.6518" x2="266.674" y2="40.6518" gradientUnits="userSpaceOnUse">
<stop offset="0.1419" stop-color="#C48857"/>
<stop offset="0.4964" stop-color="#FFDA8F"/>
<stop offset="0.8044" stop-color="#EA9957"/>
</linearGradient>
</defs>
</svg>
