<svg width="28" height="28" viewBox="0 0 28 28" fill="none" xmlns="http://www.w3.org/2000/svg">
<path d="M18.0448 21.866H9.95581C9.44038 21.866 9.02246 22.2838 9.02246 22.7993C9.02246 23.3148 9.44033 23.7327 9.95581 23.7327H18.0447C18.5601 23.7327 18.978 23.3148 18.978 22.7993C18.978 22.2838 18.5602 21.866 18.0448 21.866Z" fill="#47505F"/>
<path d="M18.0448 18.9221H9.95581C9.44038 18.9221 9.02246 19.34 9.02246 19.8555C9.02246 20.371 9.44033 20.7888 9.95581 20.7888H18.0447C18.5601 20.7888 18.978 20.371 18.978 19.8555C18.978 19.34 18.5602 18.9221 18.0448 18.9221Z" fill="#47505F"/>
<path d="M25.8222 7.32315H22.8525V1.92139C22.8525 1.40596 22.4347 0.988037 21.9192 0.988037H6.08081C5.56538 0.988037 5.14746 1.4059 5.14746 1.92139V7.32315H2.17777C0.976937 7.32315 0 8.30014 0 9.50097V18.8909C0 20.0918 0.976937 21.0687 2.17777 21.0687H5.14762V26.0788C5.14762 26.5943 5.56549 27.0122 6.08098 27.0122H21.919C22.4345 27.0122 22.8524 26.5943 22.8524 26.0788V21.0687H25.8222C27.0231 21.0687 28 20.0918 28 18.8909V9.50097C28 8.30019 27.0231 7.32315 25.8222 7.32315ZM7.01411 2.85474H20.9858V7.32315H7.01411V2.85474ZM20.9857 25.1455H7.01433C7.01433 24.9631 7.01433 17.7352 7.01433 17.5096H20.9857C20.9857 17.7408 20.9857 24.9701 20.9857 25.1455ZM21.9192 12.8037H19.5434C19.028 12.8037 18.61 12.3858 18.61 11.8703C18.61 11.3548 19.0279 10.937 19.5434 10.937H21.9192C22.4346 10.937 22.8525 11.3548 22.8525 11.8703C22.8525 12.3858 22.4347 12.8037 21.9192 12.8037Z" fill="#47505F"/>
</svg>
