<svg width="23" height="23" viewBox="0 0 23 23" fill="none" xmlns="http://www.w3.org/2000/svg">
<g clip-path="url(#clip0_1221:1187)">
<path d="M4.79167 0H0.958333C0.429333 0 0 0.429333 0 0.958333V4.79167C0 5.32067 0.429333 5.75 0.958333 5.75H4.79167C5.32067 5.75 5.75 5.32067 5.75 4.79167V0.958333C5.75 0.429333 5.32067 0 4.79167 0Z" fill="#BDBDBD"/>
<path d="M22.041 0H8.62435C8.09535 0 7.66602 0.429333 7.66602 0.958333V4.79167C7.66602 5.32067 8.09535 5.75 8.62435 5.75H22.041C22.57 5.75 22.9994 5.32067 22.9994 4.79167V0.958333C22.9994 0.429333 22.57 0 22.041 0Z" fill="#BDBDBD"/>
<path d="M4.79167 8.625H0.958333C0.429333 8.625 0 9.05433 0 9.58333V13.4167C0 13.9457 0.429333 14.375 0.958333 14.375H4.79167C5.32067 14.375 5.75 13.9457 5.75 13.4167V9.58333C5.75 9.05433 5.32067 8.625 4.79167 8.625Z" fill="#BDBDBD"/>
<path d="M22.041 8.625H8.62435C8.09535 8.625 7.66602 9.05433 7.66602 9.58333V13.4167C7.66602 13.9457 8.09535 14.375 8.62435 14.375H22.041C22.57 14.375 22.9994 13.9457 22.9994 13.4167V9.58333C22.9994 9.05433 22.57 8.625 22.041 8.625Z" fill="#BDBDBD"/>
<path d="M4.79167 17.25H0.958333C0.429333 17.25 0 17.6793 0 18.2083V22.0417C0 22.5707 0.429333 23 0.958333 23H4.79167C5.32067 23 5.75 22.5707 5.75 22.0417V18.2083C5.75 17.6793 5.32067 17.25 4.79167 17.25Z" fill="#BDBDBD"/>
<path d="M22.041 17.25H8.62435C8.09535 17.25 7.66602 17.6793 7.66602 18.2083V22.0417C7.66602 22.5707 8.09535 23 8.62435 23H22.041C22.57 23 22.9994 22.5707 22.9994 22.0417V18.2083C22.9994 17.6793 22.57 17.25 22.041 17.25Z" fill="#BDBDBD"/>
</g>
<defs>
<clipPath id="clip0_1221:1187">
<rect width="23" height="23" fill="white"/>
</clipPath>
</defs>
</svg>
