<svg width="28" height="28" viewBox="0 0 28 28" fill="none" xmlns="http://www.w3.org/2000/svg">
<g clip-path="url(#clip0_908:348)">
<path d="M14 28C21.732 28 28 21.732 28 14C28 6.26801 21.732 0 14 0C6.26801 0 0 6.26801 0 14C0 21.732 6.26801 28 14 28Z" fill="#7AA5DA"/>
<path d="M27.996 13.6761L21.7813 7.47168L11.6582 19.8108L18.9472 27.0998C24.2375 25.1009 28.0002 19.9902 28.0002 14C28.0002 13.8917 27.9985 13.7837 27.996 13.6761Z" fill="#5786B5"/>
<path d="M20.9845 7.30188C21.5426 7.08411 22.1196 7.57247 21.997 8.15883L19.494 20.1234C19.3771 20.6843 18.7181 20.937 18.2561 20.5976L14.4776 17.824L12.5515 19.7906C12.2131 20.1357 11.6295 19.9952 11.4843 19.5351L10.0947 15.1239L6.36982 14.0237C5.88053 13.8795 5.85226 13.1988 6.32645 13.0131L20.9845 7.30188ZM19.1471 9.95668C19.3101 9.81242 19.1206 9.5579 18.9359 9.67291L10.896 14.6592C10.7546 14.7468 10.6895 14.9194 10.7395 15.0787L11.8359 19.8933C11.8576 19.9669 11.9631 19.9565 11.9726 19.8802L12.2177 16.211C12.2271 16.1205 12.2705 16.0375 12.3384 15.9772L19.1471 9.95668Z" fill="white"/>
<path d="M18.9357 9.6728C19.1205 9.55779 19.31 9.81231 19.1469 9.95657L12.3383 15.9771C12.2704 16.0374 12.2271 16.1203 12.2176 16.2108L11.9725 19.8801C11.9631 19.9564 11.8575 19.9668 11.8358 19.8932L10.7394 15.0785C10.6894 14.9192 10.7545 14.7467 10.8959 14.659L18.9357 9.6728Z" fill="#9EC2E5"/>
<path d="M11.8755 19.9433C11.6983 19.8801 11.5484 19.7387 11.4843 19.535L10.0947 15.1238L6.36982 14.0236C5.88053 13.8794 5.85226 13.1987 6.32645 13.013L20.9845 7.30182C21.3446 7.16133 21.7132 7.315 21.8952 7.59976C21.8612 7.54792 21.8207 7.49985 21.7754 7.45741L11.8312 15.5755V15.9309L11.7765 15.8913L11.8312 18.1295V19.9245C11.8453 19.9311 11.8604 19.9367 11.8755 19.9414V19.9433H11.8755Z" fill="white"/>
<path d="M22.0129 7.95813C22.0157 8.02222 22.011 8.09009 21.9969 8.15894L19.4938 20.1235C19.3769 20.6845 18.7179 20.9371 18.256 20.5977L14.4774 17.8241L11.8311 15.9311V15.5757L21.7753 7.45752C21.8205 7.49996 21.8611 7.54803 21.895 7.59987C21.9016 7.61119 21.9082 7.62153 21.9148 7.63192C21.9205 7.64324 21.9271 7.65456 21.9328 7.66489C21.9384 7.67622 21.9441 7.68753 21.9488 7.69886C21.9544 7.71111 21.9592 7.72243 21.9639 7.73468C21.9676 7.74507 21.9724 7.75633 21.9761 7.76864C21.9884 7.80539 21.9978 7.84312 22.0044 7.88272C22.0082 7.90722 22.011 7.93177 22.0129 7.95813Z" fill="#D1D1D1"/>
<path d="M14.4773 17.8244L12.5513 19.791C12.5353 19.807 12.5183 19.8231 12.5013 19.8372C12.4844 19.8514 12.4673 19.8636 12.4495 19.8759C12.4485 19.8768 12.4485 19.8768 12.4485 19.8768C12.4127 19.9004 12.376 19.9202 12.3373 19.9362C12.3175 19.9438 12.2986 19.9513 12.2788 19.956C12.1968 19.9805 12.1129 19.9871 12.03 19.9787C12.0083 19.9768 11.9866 19.973 11.9659 19.9692C11.963 19.9692 11.9602 19.9683 11.9574 19.9674C11.9367 19.9618 11.9159 19.9561 11.8951 19.9494C11.8885 19.9476 11.882 19.9457 11.8754 19.9419L11.8311 18.1299V15.9314L14.4773 17.8244Z" fill="#D1D1D1"/>
<path d="M12.502 19.8369C12.4851 19.8511 12.4681 19.8643 12.4502 19.8765V19.8756C12.4681 19.8633 12.4851 19.8511 12.502 19.8369Z" fill="#DADDE0"/>
<path d="M12.4512 19.8755V19.8775C12.4512 19.8775 12.4512 19.8755 12.4492 19.8775C12.4492 19.8775 12.4492 19.8775 12.4512 19.8755Z" fill="#DADDE0"/>
<path d="M12.3379 19.9359C12.3766 19.9198 12.4133 19.9 12.4491 19.8765C12.4133 19.9 12.3756 19.9198 12.3379 19.9359Z" fill="#DADDE0"/>
<path d="M12.0303 19.9785C12.1132 19.9869 12.1971 19.9803 12.2792 19.9558C12.2198 19.9747 12.1585 19.9832 12.0972 19.9832C12.0783 19.9832 12.0595 19.9822 12.0416 19.9803C12.0378 19.9804 12.034 19.9804 12.0303 19.9785Z" fill="#DADDE0"/>
<path d="M12.0976 19.9828C12.0787 19.9828 12.0599 19.9819 12.042 19.98C12.0599 19.9819 12.0787 19.9828 12.0976 19.9828Z" fill="white"/>
<path d="M12.0306 19.9783C12.0344 19.9802 12.0381 19.9802 12.0419 19.9802C12.0221 19.9793 12.0042 19.9764 11.9854 19.9727C12.0004 19.9756 12.0155 19.9774 12.0306 19.9783Z" fill="white"/>
<path d="M12.0299 19.9784C12.0148 19.9775 11.9997 19.9756 11.9847 19.9728C11.9781 19.9718 11.9715 19.9709 11.9658 19.969C11.9865 19.9728 12.0082 19.9765 12.0299 19.9784Z" fill="#DADDE0"/>
<path d="M11.8955 19.949C11.9162 19.9556 11.937 19.9612 11.9577 19.9669C11.9493 19.9651 11.9408 19.9631 11.9323 19.9613C11.9285 19.9603 11.9248 19.9594 11.9219 19.9575C11.9134 19.9556 11.904 19.9527 11.8955 19.949Z" fill="#DADDE0"/>
<path d="M11.9326 19.9617C11.9411 19.9635 11.9496 19.9654 11.958 19.9673C11.9496 19.9664 11.9411 19.9645 11.9326 19.9617Z" fill="white"/>
<path d="M11.8959 19.9493C11.9044 19.9531 11.9138 19.9559 11.9223 19.9578C11.9082 19.9549 11.894 19.9502 11.8799 19.9446C11.8855 19.9464 11.8902 19.9484 11.8959 19.9493Z" fill="white"/>
<path d="M11.8958 19.9489C11.8901 19.948 11.8854 19.9461 11.8797 19.9442C11.8788 19.9451 11.8769 19.9442 11.876 19.9433V19.9414C11.8825 19.9451 11.8892 19.947 11.8958 19.9489Z" fill="#DADDE0"/>
<path d="M11.8311 18.1296L11.8754 19.9416C11.8603 19.9369 11.8452 19.9312 11.8311 19.9246V18.1296Z" fill="#D1D1D1"/>
<path d="M11.8311 15.931V18.1295L11.7764 15.8914L11.8311 15.931Z" fill="#DADDE0"/>
<path d="M19.1469 9.95678L12.3383 15.9773C12.2704 16.0376 12.2271 16.1206 12.2176 16.2111L11.9729 19.8806C11.9635 19.9569 11.8579 19.9673 11.8353 19.8938L10.7394 15.0788C10.6894 14.9195 10.7545 14.747 10.8959 14.6593L18.9358 9.67306C19.1205 9.558 19.31 9.81257 19.1469 9.95678Z" fill="#ADBCC9"/>
</g>
<defs>
<clipPath id="clip0_908:348">
<rect width="28" height="28" fill="white"/>
</clipPath>
</defs>
</svg>
