<svg width="19" height="19" viewBox="0 0 19 19" fill="none" xmlns="http://www.w3.org/2000/svg">
<path d="M7.9184 1.14691H11.0939V1.68123H12.2406V1.07211C12.2408 0.480972 11.7601 0 11.1692 0H7.84302C7.25217 0 6.77148 0.480972 6.77148 1.07211V1.68123H7.9184V1.14691Z" fill="#546785"/>
<path d="M14.8891 6.2251H4.12328C3.82829 6.2251 3.59607 6.47675 3.61984 6.77087L4.51989 17.9002C4.57004 18.5215 5.08827 19 5.71087 19H13.3013C13.9239 19 14.4422 18.5215 14.4923 17.9001L15.3924 6.77087C15.4163 6.47675 15.184 6.2251 14.8891 6.2251ZM6.73007 17.8129C6.71804 17.8137 6.70601 17.8141 6.69412 17.8141C6.39348 17.8141 6.1411 17.58 6.1224 17.2759L5.55837 8.13927C5.53895 7.82312 5.77943 7.55103 6.09544 7.53161C6.41044 7.51247 6.68368 7.75238 6.70311 8.06868L7.267 17.2053C7.28656 17.5214 7.04608 17.7934 6.73007 17.8129ZM10.086 17.2406C10.086 17.5572 9.82928 17.8139 9.51255 17.8139C9.19581 17.8139 8.93909 17.5572 8.93909 17.2406V8.1039C8.93909 7.78717 9.19581 7.53045 9.51255 7.53045C9.82914 7.53045 10.086 7.78717 10.086 8.1039V17.2406ZM13.454 8.13768L12.9154 17.2743C12.8976 17.579 12.6448 17.8139 12.3436 17.8139C12.3323 17.8139 12.3208 17.8137 12.3094 17.8131C11.9932 17.7944 11.752 17.523 11.7707 17.2069L12.3091 8.07013C12.3276 7.75397 12.5981 7.51276 12.9152 7.53146C13.2313 7.55002 13.4725 7.82153 13.454 8.13768Z" fill="#546785"/>
<path d="M16.8717 4.45543L16.4951 3.32649C16.3958 3.02889 16.1172 2.82812 15.8034 2.82812H3.20806C2.89437 2.82812 2.61561 3.02889 2.51646 3.32649L2.13986 4.45543C2.06723 4.67316 2.16175 4.89523 2.33816 5.00598C2.41006 5.05106 2.49515 5.07817 2.58865 5.07817H16.4229C16.5164 5.07817 16.6016 5.05106 16.6734 5.00584C16.8498 4.89509 16.9443 4.67301 16.8717 4.45543Z" fill="#546785"/>
</svg>
