<svg width="28" height="28" viewBox="0 0 28 28" fill="none" xmlns="http://www.w3.org/2000/svg">
<path d="M14 28C21.732 28 28 21.732 28 14C28 6.26801 21.732 0 14 0C6.26801 0 0 6.26801 0 14C0 21.732 6.26801 28 14 28Z" fill="#6F3FAA"/>
<path d="M20.0736 7.68046C16.6659 6.85741 13.2522 5.89469 9.75753 7.11783C7.49489 7.96631 7.49489 10.4175 7.58917 12.4916C7.58917 13.0572 6.92926 13.8115 7.21205 14.4714C7.77768 16.3569 8.24909 18.2424 10.2289 19.1852C10.5117 19.3737 10.2289 19.7508 10.4174 20.0337C10.3232 20.0337 10.1346 20.1279 10.1346 20.2222C10.1346 20.6741 10.3374 21.3653 10.2027 21.8109L16.2186 27.8243C22.4032 26.8394 27.237 21.805 27.9171 15.524L20.0736 7.68046Z" fill="#512D84"/>
<path d="M21.4061 9.83961L21.4015 9.82112C21.0274 8.30885 19.341 6.68616 17.7922 6.34858L17.7748 6.34497C15.2697 5.86711 12.7298 5.86711 10.2253 6.34497L10.2073 6.34858C8.65912 6.68616 6.97261 8.30896 6.59805 9.82112L6.5939 9.83961C6.13146 11.9515 6.13146 14.0933 6.5939 16.2051L6.59805 16.2236C6.9567 17.6713 8.51753 19.2195 10.0085 19.6452V21.3333C10.0085 21.9444 10.753 22.2444 11.1764 21.8035L12.8868 20.0256C13.2578 20.0464 13.629 20.058 14 20.058C15.2609 20.058 16.5225 19.9387 17.7747 19.6998L17.7922 19.6962C19.3409 19.3586 21.0274 17.7358 21.4014 16.2237L21.406 16.2052C21.8684 14.0933 21.8684 11.9516 21.4061 9.83961ZM20.0525 15.8989C19.8027 16.8855 18.5223 18.1121 17.5049 18.3387C16.173 18.592 14.8304 18.7002 13.4893 18.6631C13.4626 18.6623 13.4369 18.6727 13.4184 18.6919C13.228 18.8872 12.1696 19.9739 12.1696 19.9739L10.8414 21.3371C10.7442 21.4384 10.5736 21.3694 10.5736 21.2297V18.4332C10.5736 18.387 10.5406 18.3478 10.4953 18.3388C10.495 18.3387 10.4948 18.3387 10.4945 18.3386C9.47708 18.112 8.19706 16.8855 7.94687 15.8989C7.53064 13.99 7.53064 12.0548 7.94687 10.1459C8.19706 9.15924 9.47708 7.93271 10.4945 7.70608C12.8207 7.26366 15.1792 7.26366 17.5049 7.70608C18.5228 7.93271 19.8028 9.15924 20.0526 10.1459C20.4692 12.0548 20.4692 13.99 20.0525 15.8989Z" fill="white"/>
<path d="M16.2126 17.1899C16.0562 17.1424 15.9071 17.1105 15.7686 17.0531C14.3341 16.4579 13.014 15.6901 11.9683 14.5132C11.3736 13.8439 10.9082 13.0883 10.5147 12.2887C10.3281 11.9095 10.1709 11.5154 10.0106 11.1239C9.86451 10.7669 10.0798 10.3981 10.3064 10.129C10.5191 9.87651 10.7928 9.68336 11.0892 9.5409C11.3205 9.42977 11.5487 9.49387 11.7176 9.68992C12.0828 10.1139 12.4184 10.5595 12.69 11.0509C12.8571 11.3531 12.8112 11.7226 12.5084 11.9283C12.4348 11.9783 12.3678 12.037 12.2992 12.0934C12.2391 12.1429 12.1825 12.1929 12.1413 12.2599C12.066 12.3825 12.0624 12.5271 12.1109 12.6604C12.4842 13.6864 13.1135 14.4843 14.1463 14.9141C14.3115 14.9828 14.4775 15.0628 14.6679 15.0407C14.9867 15.0034 15.09 14.6536 15.3134 14.4709C15.5318 14.2924 15.8109 14.29 16.0461 14.4389C16.2814 14.5878 16.5095 14.7476 16.7362 14.9092C16.9588 15.0678 17.1803 15.2229 17.3856 15.4037C17.583 15.5776 17.651 15.8056 17.5398 16.0415C17.3364 16.4736 17.0402 16.8329 16.6132 17.0624C16.4926 17.127 16.3485 17.148 16.2126 17.1899C16.0562 17.1424 16.3485 17.148 16.2126 17.1899Z" fill="white"/>
<path d="M14.0042 9.04664C15.8804 9.09925 17.4216 10.3444 17.7518 12.1994C17.8081 12.5155 17.8281 12.8386 17.8532 13.1595C17.8637 13.2944 17.7873 13.4226 17.6417 13.4244C17.4913 13.4262 17.4237 13.3003 17.4138 13.1655C17.3945 12.8985 17.3811 12.6303 17.3443 12.3656C17.1501 10.9678 16.0356 9.81144 14.6443 9.56333C14.4349 9.52598 14.2208 9.51619 14.0086 9.49393C13.8746 9.47987 13.6991 9.47178 13.6694 9.30509C13.6445 9.16537 13.7624 9.05413 13.8954 9.04697C13.9315 9.04484 13.9678 9.04653 14.0042 9.04664C15.8805 9.09925 13.9678 9.04653 14.0042 9.04664Z" fill="white"/>
<path d="M16.8548 12.7433C16.8517 12.7668 16.8501 12.8219 16.8363 12.8737C16.7866 13.062 16.5009 13.0856 16.4352 12.8956C16.4157 12.8392 16.4128 12.775 16.4127 12.7143C16.412 12.3169 16.3257 11.9199 16.1252 11.5741C15.9192 11.2187 15.6045 10.92 15.2354 10.7392C15.0121 10.6299 14.7708 10.5619 14.5261 10.5215C14.4192 10.5038 14.3112 10.4931 14.2037 10.4782C14.0735 10.4601 14.0039 10.3771 14.0102 10.2488C14.0159 10.1286 14.1038 10.042 14.2348 10.0495C14.6654 10.0739 15.0813 10.1671 15.4642 10.3698C16.2426 10.7821 16.6873 11.4327 16.8172 12.3017C16.823 12.3411 16.8324 12.38 16.8354 12.4195C16.8427 12.517 16.8474 12.6146 16.8548 12.7433C16.8517 12.7667 16.8474 12.6146 16.8548 12.7433Z" fill="white"/>
<path d="M15.6879 12.6979C15.5309 12.7007 15.4469 12.6138 15.4307 12.47C15.4195 12.3697 15.4105 12.2679 15.3866 12.1703C15.3394 11.9779 15.2372 11.7998 15.0754 11.6819C14.9991 11.6263 14.9125 11.5858 14.8219 11.5595C14.7068 11.5262 14.5871 11.5354 14.4724 11.5073C14.3476 11.4767 14.2786 11.3757 14.2982 11.2587C14.3161 11.1521 14.4196 11.069 14.5361 11.0775C15.2635 11.13 15.7834 11.5061 15.8576 12.3625C15.8629 12.4229 15.8691 12.4867 15.8557 12.5447C15.8326 12.6435 15.7593 12.6931 15.6879 12.6979C15.5309 12.7007 15.7593 12.6931 15.6879 12.6979Z" fill="white"/>
<path d="M21.4059 9.83979L21.4013 9.8213C21.1916 8.97359 20.5694 8.09127 19.7903 7.41992L18.737 8.35333C19.3633 8.85235 19.8999 9.54366 20.0524 10.146C20.4691 12.055 20.4691 13.9901 20.0524 15.8991C19.8026 16.8857 18.5221 18.1123 17.5048 18.3389C16.1729 18.5922 14.8303 18.7004 13.4892 18.6633C13.4625 18.6625 13.4368 18.6729 13.4183 18.6921C13.2279 18.8874 12.1695 19.974 12.1695 19.974L10.8413 21.3373C10.7441 21.4386 10.5735 21.3697 10.5735 21.2299V18.4334C10.5735 18.3872 10.5405 18.348 10.4951 18.339C10.4949 18.339 10.4947 18.3389 10.4944 18.3389C9.91617 18.2101 9.25341 17.7582 8.74285 17.2112L7.70215 18.1334C8.35211 18.8404 9.19041 19.412 10.0082 19.6455V21.3336C10.0082 21.9446 10.7528 22.2447 11.1762 21.8038L12.8865 20.0259C13.2575 20.0467 13.6286 20.0583 13.9997 20.0583C15.2607 20.0583 16.5222 19.939 17.7744 19.7001L17.7919 19.6966C19.3406 19.359 21.0271 17.7363 21.4011 16.224L21.4057 16.2055C21.8682 14.0934 21.8682 11.9518 21.4059 9.83979Z" fill="#D1D1D1"/>
<path d="M16.2134 17.1898C16.3494 17.1479 16.057 17.1423 16.2134 17.1898V17.1898Z" fill="white"/>
<path d="M17.3862 15.4035C17.181 15.2228 16.9593 15.0677 16.7369 14.9091C16.5101 14.7475 16.2821 14.5877 16.0468 14.4387C15.8116 14.2898 15.5325 14.2922 15.3141 14.4707C15.0906 14.6534 14.9874 15.0032 14.6685 15.0405C14.4782 15.0626 14.3122 14.9826 14.1469 14.9139C13.5115 14.6495 13.0294 14.2453 12.665 13.7349L11.8906 14.4212C11.9169 14.4517 11.942 14.4829 11.9688 14.513C13.0145 15.6899 14.3347 16.4578 15.7691 17.0529C15.9075 17.1103 16.0567 17.1423 16.2131 17.1897C16.0567 17.1422 16.3491 17.1479 16.2131 17.1897C16.3491 17.1479 16.4931 17.1268 16.6138 17.0622C17.0409 16.8327 17.337 16.4733 17.5404 16.0413C17.6516 15.8054 17.5837 15.5774 17.3862 15.4035Z" fill="#D1D1D1"/>
<path d="M14.0091 9.0483C14.0075 9.0483 14.006 9.04814 14.0044 9.04814C14.0029 9.04803 14.0049 9.04814 14.0091 9.0483Z" fill="white"/>
<path d="M14.0049 9.04688C14.0065 9.04688 14.008 9.04704 14.0096 9.04704C14.1137 9.05076 15.8073 9.0974 14.0049 9.04688Z" fill="white"/>
<path d="M16.6944 10.1631L16.3643 10.4557C16.8831 10.9605 17.2408 11.6295 17.3431 12.3657C17.3799 12.6305 17.3934 12.8986 17.4127 13.1656C17.4225 13.3005 17.4901 13.4263 17.6406 13.4246C17.7862 13.4228 17.8626 13.2947 17.852 13.1597C17.8269 12.8389 17.807 12.5157 17.7507 12.1997C17.6062 11.3876 17.2295 10.6925 16.6944 10.1631Z" fill="#D1D1D1"/>
<path d="M16.8171 12.3016C16.7225 11.6684 16.4598 11.1517 16.0236 10.7581L15.6943 11.0498C15.8646 11.2009 16.0119 11.3784 16.1253 11.5741C16.3257 11.9199 16.4121 12.3169 16.4127 12.7143C16.4128 12.775 16.4157 12.8392 16.4352 12.8957C16.501 13.0858 16.7866 13.0623 16.8364 12.8738C16.8502 12.8219 16.8517 12.7668 16.8549 12.7434C16.8517 12.7669 16.8473 12.6148 16.8549 12.7434C16.8473 12.6148 16.8427 12.5171 16.8353 12.4195C16.8324 12.3799 16.823 12.3409 16.8171 12.3016Z" fill="#D1D1D1"/>
<path d="M16.8557 12.743C16.8482 12.6143 16.8526 12.7664 16.8557 12.743V12.743Z" fill="white"/>
<path d="M15.688 12.6975C15.6905 12.6973 15.6929 12.6961 15.6952 12.6958C15.6886 12.6958 15.6784 12.696 15.668 12.6963C15.6748 12.6965 15.6809 12.6976 15.688 12.6975Z" fill="white"/>
<path d="M15.6882 12.6977C15.6811 12.6978 15.6749 12.6968 15.6681 12.6965C15.6342 12.6975 15.5991 12.6993 15.6882 12.6977Z" fill="white"/>
<path d="M15.6956 12.6958C15.6932 12.6961 15.6908 12.6973 15.6885 12.6975C15.7068 12.6962 15.7053 12.6958 15.6956 12.6958Z" fill="white"/>
<path d="M15.3566 11.3491L15.0215 11.6462C15.04 11.6574 15.0581 11.6691 15.0756 11.6818C15.2374 11.7997 15.3396 11.9779 15.3867 12.1702C15.4107 12.2679 15.4196 12.3695 15.4309 12.4699C15.4464 12.6073 15.5244 12.6918 15.668 12.6967C15.6784 12.6965 15.6887 12.6962 15.6952 12.6962C15.7644 12.6885 15.8337 12.6401 15.8558 12.5445C15.8692 12.4867 15.8631 12.4227 15.8578 12.3623C15.8161 11.8835 15.6351 11.555 15.3566 11.3491Z" fill="#D1D1D1"/>
</svg>
