<svg width="28" height="28" viewBox="0 0 28 28" fill="none" xmlns="http://www.w3.org/2000/svg">
<g clip-path="url(#clip0_908:338)">
<path d="M14 28C21.732 28 28 21.732 28 14C28 6.26801 21.732 0 14 0C6.26801 0 0 6.26801 0 14C0 21.732 6.26801 28 14 28Z" fill="#75B73B"/>
<path d="M19.701 8.30302C18.8892 8.10002 17.6955 7.39893 16.9228 7.11789C13.906 6.17513 9.85212 6.92933 8.7208 10.4176C8.62652 10.5119 8.43795 10.5119 8.34367 10.5119C6.08103 13.1516 7.58948 16.357 7.40091 19.2795C7.33655 20.3098 6.79481 21.2208 6.09766 21.9914L11.9646 27.8522C12.6293 27.949 13.3088 28 14.0003 28C20.9147 28 26.6578 22.9871 27.795 16.3975L19.701 8.30302Z" fill="#52891D"/>
<path d="M13.6081 5.93073C9.3409 6.13373 5.97351 9.68755 5.98636 13.9595C5.9903 15.2606 6.30443 16.4887 6.85863 17.574L6.00786 21.7037C5.96186 21.9272 6.16333 22.1228 6.38526 22.0702L10.4319 21.1115C11.4715 21.6294 12.6393 21.9285 13.8751 21.9473C18.2366 22.014 21.8732 18.551 22.0093 14.1911C22.1549 9.51758 18.2978 5.70734 13.6081 5.93073ZM18.4366 18.3715C17.2516 19.5566 15.6758 20.2093 13.9998 20.2093C13.0185 20.2093 12.0789 19.989 11.2072 19.5549L10.6438 19.2741L8.1626 19.8618L8.68481 17.3267L8.40727 16.783C7.95468 15.8967 7.72521 14.9385 7.72521 13.9346C7.72521 12.2586 8.3779 10.683 9.56293 9.49784C10.7374 8.32326 12.3388 7.66012 13.9999 7.66012C15.6758 7.66012 17.2516 8.31281 18.4366 9.49784C19.6216 10.6829 20.2743 12.2586 20.2743 13.9345C20.2744 15.5957 19.6112 17.197 18.4366 18.3715Z" fill="white"/>
<path d="M17.8884 15.6724L16.3362 15.2267C16.1323 15.1683 15.9124 15.2262 15.7637 15.3777L15.3841 15.7643C15.2241 15.9275 14.9813 15.9798 14.7694 15.8941C14.0351 15.597 12.4905 14.2235 12.0962 13.5368C11.9822 13.3386 12.0011 13.091 12.1409 12.9099L12.4722 12.4813C12.602 12.3134 12.6294 12.0877 12.5436 11.8935L11.8905 10.4165C11.7341 10.0628 11.2821 9.95978 10.9867 10.2096C10.5535 10.5761 10.0395 11.1327 9.97713 11.7496C9.86693 12.8372 10.3334 14.208 12.0969 15.8542C14.1344 17.7561 15.7661 18.0071 16.8287 17.7498C17.4313 17.604 17.9128 17.0189 18.2166 16.5398C18.4239 16.213 18.26 15.7792 17.8884 15.6724Z" fill="white"/>
<path d="M19.4684 8.07788L18.2531 9.32355C18.3149 9.3807 18.3765 9.43818 18.4364 9.49806C19.6214 10.6831 20.2741 12.2589 20.2741 13.9347C20.2741 15.5958 19.6108 17.1971 18.4364 18.3717C17.2513 19.5567 15.6756 20.2094 13.9996 20.2094C13.0182 20.2094 12.0787 19.9892 11.2069 19.555L10.6435 19.2743L8.16232 19.862L8.21362 19.613L6.0166 21.8646C6.06505 22.0102 6.21922 22.1093 6.38487 22.0701L10.4315 21.1114C11.4711 21.6294 12.6389 21.9284 13.8747 21.9473C18.2362 22.014 21.8729 18.5509 22.0089 14.191C22.0841 11.7774 21.0916 9.5942 19.4684 8.07788Z" fill="#D1D1D1"/>
<path d="M17.8889 15.6726L16.3367 15.227C16.1327 15.1685 15.9129 15.2265 15.7642 15.3779L15.3846 15.7646C15.2245 15.9278 14.9817 15.9801 14.7699 15.8944C14.3457 15.7227 13.6515 15.1919 13.0644 14.6418L11.9854 15.7479C12.0224 15.7833 12.0593 15.8187 12.0975 15.8544C14.135 17.7563 15.7667 18.0074 16.8292 17.7501C17.4318 17.6043 17.9134 17.0192 18.2171 16.5401C18.4244 16.2132 18.2605 15.7795 17.8889 15.6726Z" fill="#D1D1D1"/>
</g>
<defs>
<clipPath id="clip0_908:338">
<rect width="28" height="28" fill="white"/>
</clipPath>
</defs>
</svg>
